<?xml version="1.0"?>
<svg width="250mm" height="200mm" viewBox="0 0   5600    1500"
     xmlns="http://www.w3.org/2000/svg"
     xmlns:xlink="http://www.w3.org/1999/xlink"
     xmlns:ev="http://www.w3.org/2001/xml-events">
<g font-family="Verdana" font-size="8" >
  <text x="     1" y="     1">ERROR - COULD NOT COMPLETE DRAWING! Examine ERR file for possible explanation. Last error message is:   "Error: OrganizeSubDiagram stopped from runaway condition."</text>
  <line x1="  3000" y1="   310" x2="   900" y2="   950" style = "stroke:silver  ;"/>
  <line x1="  3000" y1="   350" x2="   900" y2="    30" style = "stroke:silver  ;"/>
  <line x1="  3000" y1="   390" x2="   900" y2="  1030" style = "stroke:silver  ;"/>
  <line x1="  3000" y1="   430" x2="   600" y2="  1110" style = "stroke:silver  ;"/>
  <line x1="  3000" y1="   470" x2="  5100" y2="   790" style = "stroke:silver  ;"/>
  <line x1="  3000" y1="   510" x2="  3900" y2="   630" style = "stroke:silver  ;"/>
  <line x1="  2700" y1="   670" x2="  3300" y2="   630" style = "stroke:silver  ;"/>
  <rect x="   200" y="   860" width="   200" height="    20" style = "fill:snow; stroke: Black;"/>     1
  <text x="   202" y="   873">OutdoorAir:NodeList</text>
  <rect x="   800" y="   300" width="   200" height="    20" style = "fill:wheat; stroke: Black;"/>     9
  <text x="   802" y="   313">HEATING SUPPLY SIDE BYPASS</text>
  <rect x="  1400" y="   300" width="   200" height="    20" style = "fill:wheat; stroke: Black;"/>    10
  <text x="  1402" y="   313">HEATING SUPPLY OUTLET</text>
  <rect x="  2000" y="   300" width="   200" height="    20" style = "fill:wheat; stroke: Black;"/>    11
  <text x="  2002" y="   313">HEATING DEMAND INLET PIPE</text>
  <rect x="  3800" y="   540" width="   200" height="    20" style = "fill:wheat; stroke: Black;"/>    12
  <text x="  3802" y="   553">HEATING DEMAND OUTLET PIPE</text>
  <rect x="  2900" y="   540" width="   200" height="    20" style = "fill:wheat; stroke: Black;"/>    13
  <text x="  2902" y="   553">HEATING DEMAND BYPASS</text>
  <rect x="  1700" y="   660" width="   200" height="    20" style = "fill:wheat; stroke: Black;"/>    14
  <text x="  1702" y="   673">COOLING DEMAND SIDE INLET PIPE</text>
  <rect x="  2600" y="   700" width="   200" height="    20" style = "fill:wheat; stroke: Black;"/>    15
  <text x="  2602" y="   713">COOLING DEMAND SIDE BYPASS</text>
  <rect x="  3800" y="   700" width="   200" height="    20" style = "fill:wheat; stroke: Black;"/>    16
  <text x="  3802" y="   713">CW DEMAND SIDE OUTLET PIPE</text>
  <rect x="  1400" y="   660" width="   200" height="    20" style = "fill:wheat; stroke: Black;"/>    17
  <text x="  1402" y="   673">SUPPLY SIDE OUTLET PIPE</text>
  <rect x="   800" y="   660" width="   200" height="    20" style = "fill:wheat; stroke: Black;"/>    18
  <text x="   802" y="   673">SUPPLY SIDE BYPASS</text>
  <rect x="  2600" y="   300" width="   200" height="    20" style = "fill:wheat; stroke: Black;"/>    19
  <text x="  2602" y="   313">HEATING DEMAND SPLITTER</text>
  <rect x="  3500" y="   540" width="   200" height="    20" style = "fill:wheat; stroke: Black;"/>    20
  <text x="  3502" y="   553">HEATING DEMAND MIXER</text>
  <rect x="   500" y="   260" width="   200" height="    20" style = "fill:wheat; stroke: Black;"/>    21
  <text x="   502" y="   273">HEATING SUPPLY SPLITTER</text>
  <rect x="  1100" y="   300" width="   200" height="    20" style = "fill:wheat; stroke: Black;"/>    22
  <text x="  1102" y="   313">HEATING SUPPLY MIXER</text>
  <rect x="  2300" y="   660" width="   200" height="    20" style = "fill:wheat; stroke: Black;"/>    23
  <text x="  2302" y="   673">CW DEMAND SPLITTER</text>
  <rect x="  3500" y="   700" width="   200" height="    20" style = "fill:wheat; stroke: Black;"/>    24
  <text x="  3502" y="   713">CW DEMAND MIXER</text>
  <rect x="   500" y="   620" width="   200" height="    20" style = "fill:wheat; stroke: Black;"/>    25
  <text x="   502" y="   633">CW LOOP SPLITTER</text>
  <rect x="  1100" y="   660" width="   200" height="    20" style = "fill:wheat; stroke: Black;"/>    26
  <text x="  1102" y="   673">CW LOOP MIXER</text>
  <rect x="  1100" y="   940" width="   200" height="    20" style = "fill:chartreuse; stroke: Black;"/>    27
  <text x="  1102" y="   953">SPACE1-1</text>
  <rect x="  4700" y="   620" width="   200" height="    20" style = "fill:wheat; stroke: Black;"/>    32
  <text x="  4702" y="   633">ZONE SUPPLY AIR SPLITTER 1</text>
  <rect x="  2900" y="   300" width="   200" height="    20" style = "fill:salmon; stroke: Black;"/>    33
  <text x="  2902" y="   313">SPACE1-1 ZONE COIL</text>
  <rect x="   800" y="   940" width="   200" height="    20" style = "fill:salmon; stroke: Black;"/>    34
  <text x="   802" y="   953">SPACE1-1 ZONE COIL</text>
  <rect x="  2900" y="   340" width="   200" height="    20" style = "fill:salmon; stroke: Black;"/>    35
  <text x="  2902" y="   353">SPACE2-1 ZONE COIL</text>
  <rect x="   800" y="    20" width="   200" height="    20" style = "fill:salmon; stroke: Black;"/>    36
  <text x="   802" y="    33">SPACE2-1 ZONE COIL</text>
  <rect x="  2900" y="   380" width="   200" height="    20" style = "fill:salmon; stroke: Black;"/>    37
  <text x="  2902" y="   393">SPACE3-1 ZONE COIL</text>
  <rect x="   800" y="  1020" width="   200" height="    20" style = "fill:salmon; stroke: Black;"/>    38
  <text x="   802" y="  1033">SPACE3-1 ZONE COIL</text>
  <rect x="  2900" y="   420" width="   200" height="    20" style = "fill:salmon; stroke: Black;"/>    39
  <text x="  2902" y="   433">SPACE4-1 ZONE COIL</text>
  <rect x="   500" y="  1100" width="   200" height="    20" style = "fill:salmon; stroke: Black;"/>    40
  <text x="   502" y="  1113">SPACE4-1 ZONE COIL</text>
  <rect x="  2900" y="   460" width="   200" height="    20" style = "fill:salmon; stroke: Black;"/>    41
  <text x="  2902" y="   473">SPACE5-1 ZONE COIL</text>
  <rect x="  5000" y="   780" width="   200" height="    20" style = "fill:salmon; stroke: Black;"/>    42
  <text x="  5002" y="   793">SPACE5-1 ZONE COIL</text>
  <rect x="  2900" y="   500" width="   200" height="    20" style = "fill:salmon; stroke: Black;"/>    43
  <text x="  2902" y="   513">MAIN HEATING COIL 1</text>
  <rect x="  3800" y="   620" width="   200" height="    20" style = "fill:salmon; stroke: Black;"/>    44
  <text x="  3802" y="   633">MAIN HEATING COIL 1</text>
  <rect x="  2600" y="   660" width="   200" height="    20" style = "fill:skyblue; stroke: Black;"/>    45
  <text x="  2602" y="   673">MAIN COOLING COIL 1</text>
  <rect x="  3200" y="   620" width="   200" height="    20" style = "fill:skyblue; stroke: Black;"/>    46
  <text x="  3202" y="   633">MAIN COOLING COIL 1</text>
  <rect x="   200" y="   940" width="   200" height="    20" style = "fill:wheat; stroke: Black;"/>    47
  <text x="   202" y="   953">SPACE1-1 PIU MIXER</text>
  <rect x="   500" y="    20" width="   200" height="    20" style = "fill:wheat; stroke: Black;"/>    48
  <text x="   502" y="    33">SPACE2-1 PIU MIXER</text>
  <rect x="   200" y="  1020" width="   200" height="    20" style = "fill:wheat; stroke: Black;"/>    49
  <text x="   202" y="  1033">SPACE3-1 PIU MIXER</text>
  <rect x="   200" y="  1100" width="   200" height="    20" style = "fill:wheat; stroke: Black;"/>    50
  <text x="   202" y="  1113">SPACE4-1 PIU MIXER</text>
  <rect x="   500" y="   940" width="   200" height="    20" style = "fill:silver; stroke: Black;"/>    51
  <text x="   502" y="   953">SPACE1-1 PIU FAN</text>
  <rect x="   200" y="    20" width="   200" height="    20" style = "fill:silver; stroke: Black;"/>    52
  <text x="   202" y="    33">SPACE2-1 PIU FAN</text>
  <rect x="   500" y="  1020" width="   200" height="    20" style = "fill:silver; stroke: Black;"/>    53
  <text x="   502" y="  1033">SPACE3-1 PIU FAN</text>
  <rect x="   200" y="  1180" width="   200" height="    20" style = "fill:silver; stroke: Black;"/>    54
  <text x="   202" y="  1193">SPACE4-1 PIU FAN</text>
  <rect x="  4100" y="   620" width="   200" height="    20" style = "fill:silver; stroke: Black;"/>    55
  <text x="  4102" y="   633">SUPPLY FAN 1</text>
  <rect x="  2000" y="   620" width="   200" height="    20" style = "fill:lightgreen; stroke: Black;"/>    57
  <text x="  2002" y="   633">RETURN-PLENUM-1</text>
  <rect x="  2900" y="   620" width="   200" height="    20" style = "fill:lawngreen; stroke: Black;"/>    58
  <text x="  2902" y="   633">OA MIXING BOX 1</text>
  <rect x="   800" y="   260" width="   200" height="    20" style = "fill:indianred; stroke: Black;"/>    62
  <text x="   802" y="   273">CENTRAL BOILER</text>
  <rect x="   800" y="   620" width="   200" height="    20" style = "fill:powderblue; stroke: Black;"/>    63
  <text x="   802" y="   633">CENTRAL CHILLER</text>
  <rect x="   200" y="   260" width="   200" height="    20" style = "fill:springgreen; stroke: Black;"/>    65
  <text x="   202" y="   273">HW CIRC PUMP</text>
  <rect x="   200" y="   620" width="   200" height="    20" style = "fill:springgreen; stroke: Black;"/>    66
  <text x="   202" y="   633">CW CIRC PUMP</text>
  <rect x="  1100" y="    20" width="   200" height="    20" style = "fill:chartreuse; stroke: Black;"/>    67
  <text x="  1102" y="    33">SPACE2-1</text>
  <rect x="  1100" y="  1020" width="   200" height="    20" style = "fill:chartreuse; stroke: Black;"/>    68
  <text x="  1102" y="  1033">SPACE3-1</text>
  <rect x="   800" y="  1100" width="   200" height="    20" style = "fill:chartreuse; stroke: Black;"/>    69
  <text x="   802" y="  1113">SPACE4-1</text>
  <rect x="  5300" y="   780" width="   200" height="    20" style = "fill:chartreuse; stroke: Black;"/>    70
  <text x="  5302" y="   793">SPACE5-1</text>
  <line x1="   400" y1="   870" x2="   400" y2="   870" style = "stroke: Black;"/>
  <line x1="   400" y1="   870" x2="   400" y2="   870" style = "stroke: Black;"/>
  <line x1="   400" y1="   870" x2="  2900" y2="   630" style = "stroke: Black;"/>
  <line x1="  1000" y1="   310" x2="  1100" y2="   310" style = "stroke: Black;"/>
  <line x1="  1600" y1="   310" x2="  1600" y2="   310" style = "stroke: Black;"/>
  <line x1="  1600" y1="   310" x2="  1600" y2="   310" style = "stroke: Black;"/>
  <line x1="  1600" y1="   310" x2="  2000" y2="   310" style = "stroke: Black;"/>
  <line x1="  2200" y1="   310" x2="  2200" y2="   310" style = "stroke: Black;"/>
  <line x1="  2200" y1="   310" x2="  2200" y2="   310" style = "stroke: Black;"/>
  <line x1="  2200" y1="   310" x2="  2600" y2="   310" style = "stroke: Black;"/>
  <line x1="  3100" y1="   550" x2="  3100" y2="   550" style = "stroke: Black;"/>
  <line x1="  3100" y1="   550" x2="  3100" y2="   550" style = "stroke: Black;"/>
  <line x1="  3100" y1="   550" x2="  3500" y2="   550" style = "stroke: Black;"/>
  <line x1="  1900" y1="   670" x2="  1900" y2="   670" style = "stroke: Black;"/>
  <line x1="  1900" y1="   670" x2="  1900" y2="   670" style = "stroke: Black;"/>
  <line x1="  1900" y1="   670" x2="  2300" y2="   670" style = "stroke: Black;"/>
  <line x1="  2800" y1="   710" x2="  2800" y2="   710" style = "stroke: Black;"/>
  <line x1="  2800" y1="   710" x2="  2800" y2="   710" style = "stroke: Black;"/>
  <line x1="  2800" y1="   710" x2="  3500" y2="   710" style = "stroke: Black;"/>
  <line x1="  1600" y1="   670" x2="  1700" y2="   670" style = "stroke: Black;"/>
  <line x1="  1000" y1="   670" x2="  1100" y2="   670" style = "stroke: Black;"/>
  <line x1="  2800" y1="   310" x2="  2900" y2="   310" style = "stroke: Black;"/>
  <line x1="  2800" y1="   310" x2="  2900" y2="   350" style = "stroke: Black;"/>
  <line x1="  2800" y1="   310" x2="  2900" y2="   390" style = "stroke: Black;"/>
  <line x1="  2800" y1="   310" x2="  2900" y2="   430" style = "stroke: Black;"/>
  <line x1="  2800" y1="   310" x2="  2900" y2="   470" style = "stroke: Black;"/>
  <line x1="  2800" y1="   310" x2="  2900" y2="   510" style = "stroke: Black;"/>
  <line x1="  2800" y1="   310" x2="  2900" y2="   550" style = "stroke: Black;"/>
  <line x1="  3700" y1="   550" x2="  3800" y2="   550" style = "stroke: Black;"/>
  <line x1="   700" y1="   270" x2="   800" y2="   270" style = "stroke: Black;"/>
  <line x1="   700" y1="   270" x2="   800" y2="   310" style = "stroke: Black;"/>
  <line x1="  1300" y1="   310" x2="  1400" y2="   310" style = "stroke: Black;"/>
  <line x1="  2500" y1="   670" x2="  2600" y2="   670" style = "stroke: Black;"/>
  <line x1="  2500" y1="   670" x2="  2600" y2="   710" style = "stroke: Black;"/>
  <line x1="  3700" y1="   710" x2="  3800" y2="   710" style = "stroke: Black;"/>
  <line x1="   700" y1="   630" x2="   800" y2="   630" style = "stroke: Black;"/>
  <line x1="   700" y1="   630" x2="   800" y2="   670" style = "stroke: Black;"/>
  <line x1="  1300" y1="   670" x2="  1400" y2="   670" style = "stroke: Black;"/>
  <line x1="  4900" y1="   630" x2="   200" y2="   950" style = "stroke: Black;"/>
  <line x1="  4900" y1="   630" x2="   500" y2="    30" style = "stroke: Black;"/>
  <line x1="  4900" y1="   630" x2="   200" y2="  1030" style = "stroke: Black;"/>
  <line x1="  4900" y1="   630" x2="   200" y2="  1110" style = "stroke: Black;"/>
  <line x1="  4900" y1="   630" x2="  5000" y2="   790" style = "stroke: Black;"/>
  <line x1="  3100" y1="   310" x2="  3200" y2="   330" style = "stroke: Black;"/>
  <line x1="  3200" y1="   330" x2="  3400" y2="   330" style = "stroke: Black;"/>
  <line x1="  3400" y1="   330" x2="  3500" y2="   550" style = "stroke: Black;"/>
  <line x1="  1000" y1="   950" x2="  1100" y2="   950" style = "stroke: Black;"/>
  <line x1="  3100" y1="   350" x2="  3200" y2="   370" style = "stroke: Black;"/>
  <line x1="  3200" y1="   370" x2="  3400" y2="   370" style = "stroke: Black;"/>
  <line x1="  3400" y1="   370" x2="  3500" y2="   550" style = "stroke: Black;"/>
  <line x1="  1000" y1="    30" x2="  1100" y2="    30" style = "stroke: Black;"/>
  <line x1="  3100" y1="   390" x2="  3200" y2="   410" style = "stroke: Black;"/>
  <line x1="  3200" y1="   410" x2="  3400" y2="   410" style = "stroke: Black;"/>
  <line x1="  3400" y1="   410" x2="  3500" y2="   550" style = "stroke: Black;"/>
  <line x1="  1000" y1="  1030" x2="  1100" y2="  1030" style = "stroke: Black;"/>
  <line x1="  3100" y1="   430" x2="  3200" y2="   450" style = "stroke: Black;"/>
  <line x1="  3200" y1="   450" x2="  3400" y2="   450" style = "stroke: Black;"/>
  <line x1="  3400" y1="   450" x2="  3500" y2="   550" style = "stroke: Black;"/>
  <line x1="   700" y1="  1110" x2="   800" y2="  1110" style = "stroke: Black;"/>
  <line x1="  3100" y1="   470" x2="  3200" y2="   490" style = "stroke: Black;"/>
  <line x1="  3200" y1="   490" x2="  3400" y2="   490" style = "stroke: Black;"/>
  <line x1="  3400" y1="   490" x2="  3500" y2="   550" style = "stroke: Black;"/>
  <line x1="  5200" y1="   790" x2="  5300" y2="   790" style = "stroke: Black;"/>
  <line x1="  3100" y1="   510" x2="  3200" y2="   530" style = "stroke: Black;"/>
  <line x1="  3200" y1="   530" x2="  3400" y2="   530" style = "stroke: Black;"/>
  <line x1="  3400" y1="   530" x2="  3500" y2="   550" style = "stroke: Black;"/>
  <line x1="  4000" y1="   630" x2="  4100" y2="   630" style = "stroke: Black;"/>
  <line x1="  2800" y1="   670" x2="  2900" y2="   690" style = "stroke: Black;"/>
  <line x1="  2900" y1="   690" x2="  3400" y2="   690" style = "stroke: Black;"/>
  <line x1="  3400" y1="   690" x2="  3500" y2="   710" style = "stroke: Black;"/>
  <line x1="  3400" y1="   630" x2="  3400" y2="   630" style = "stroke: Black;"/>
  <line x1="  3400" y1="   630" x2="  3400" y2="   630" style = "stroke: Black;"/>
  <line x1="  3400" y1="   630" x2="  3800" y2="   630" style = "stroke: Black;"/>
  <line x1="   400" y1="   950" x2="   500" y2="   950" style = "stroke: Black;"/>
  <line x1="   700" y1="    30" x2="   800" y2="    30" style = "stroke: Black;"/>
  <line x1="   400" y1="  1030" x2="   500" y2="  1030" style = "stroke: Black;"/>
  <line x1="   400" y1="  1110" x2="   500" y2="  1110" style = "stroke: Black;"/>
  <line x1="   700" y1="   950" x2="   800" y2="   950" style = "stroke: Black;"/>
  <line x1="   400" y1="    30" x2="   500" y2="    30" style = "stroke: Black;"/>
  <line x1="   700" y1="  1030" x2="   800" y2="  1030" style = "stroke: Black;"/>
  <line x1="   400" y1="  1190" x2="   200" y2="  1110" style = "stroke: Black;"/>
  <line x1="  4300" y1="   630" x2="  4300" y2="   630" style = "stroke: Black;"/>
  <line x1="  4300" y1="   630" x2="  4300" y2="   630" style = "stroke: Black;"/>
  <line x1="  4300" y1="   630" x2="  4700" y2="   630" style = "stroke: Black;"/>
  <line x1="  2200" y1="   630" x2="  2200" y2="   630" style = "stroke: Black;"/>
  <line x1="  2200" y1="   630" x2="  2200" y2="   630" style = "stroke: Black;"/>
  <line x1="  2200" y1="   630" x2="  2900" y2="   630" style = "stroke: Black;"/>
  <line x1="  3100" y1="   630" x2="  3200" y2="   630" style = "stroke: Black;"/>
  <line x1="  1000" y1="   270" x2="  1100" y2="   310" style = "stroke: Black;"/>
  <line x1="  1000" y1="   630" x2="  1100" y2="   670" style = "stroke: Black;"/>
  <line x1="   400" y1="   270" x2="   500" y2="   270" style = "stroke: Black;"/>
  <line x1="   400" y1="   630" x2="   500" y2="   630" style = "stroke: Black;"/>
  <line x1="  1300" y1="   950" x2="  1300" y2="   950" style = "stroke: Black;"/>
  <line x1="  1300" y1="   950" x2="  1300" y2="   950" style = "stroke: Black;"/>
  <line x1="  1300" y1="   950" x2="  2000" y2="   630" style = "stroke: Black;"/>
  <line x1="  1300" y1="    30" x2="  1400" y2="    50" style = "stroke: Black;"/>
  <line x1="  1400" y1="    50" x2="  1900" y2="    50" style = "stroke: Black;"/>
  <line x1="  1900" y1="    50" x2="  2000" y2="   630" style = "stroke: Black;"/>
  <line x1="  1300" y1="  1030" x2="  1300" y2="  1030" style = "stroke: Black;"/>
  <line x1="  1300" y1="  1030" x2="  1300" y2="  1030" style = "stroke: Black;"/>
  <line x1="  1300" y1="  1030" x2="  2000" y2="   630" style = "stroke: Black;"/>
  <line x1="  1000" y1="  1110" x2="  1000" y2="  1110" style = "stroke: Black;"/>
  <line x1="  1000" y1="  1110" x2="  1000" y2="  1110" style = "stroke: Black;"/>
  <line x1="  1000" y1="  1110" x2="  2000" y2="   630" style = "stroke: Black;"/>
  <line x1="  5500" y1="   790" x2="  2000" y2="   630" style = "stroke: Black;"/>
  <line x1="   200" y1="   270" x2="   175" y2="   270" style = "stroke: Black;"/>
  <line x1="   175" y1="   270" x2="   175" y2="   240" style = "stroke: Black;"/>
  <line x1="   175" y1="   240" x2="  4025" y2="   240" style = "stroke: Black;"/>
  <line x1="  4025" y1="   240" x2="  4025" y2="   550" style = "stroke: Black;"/>
  <line x1="  4025" y1="   550" x2="  4000" y2="   550" style = "stroke: Black;"/>
  <line x1="   200" y1="   630" x2="   175" y2="   630" style = "stroke: Black;"/>
  <line x1="   175" y1="   630" x2="   175" y2="   600" style = "stroke: Black;"/>
  <line x1="   175" y1="   600" x2="  4025" y2="   600" style = "stroke: Black;"/>
  <line x1="  4025" y1="   600" x2="  4025" y2="   710" style = "stroke: Black;"/>
  <line x1="  4025" y1="   710" x2="  4000" y2="   710" style = "stroke: Black;"/>
  <text x="   200" y="  1240">Unused Non-Parent Objects:</text>
  <text x="   220" y="  1260">OutdoorAir:Node</text>
  <text x="   220" y="  1280">SUPPLY AIR TEMP MANAGER 1</text>
  <text x="   220" y="  1300">HOT WATER LOOP SETPOINT MANAGER</text>
  <text x="   220" y="  1320">CENTRAL BOILER SETPOINT MANAGER</text>
  <text x="   220" y="  1340">CHILLED WATER LOOP SETPOINT MANAGER</text>
  <text x="   220" y="  1360">CENTRAL CHILLER SETPOINT MANAGER</text>
  <text x="   220" y="  1380">MIXED AIR TEMP MANAGER 1</text>
  <text x="   220" y="  1400">RELIEF FAN 1</text>
  <text x="   220" y="  1420">CENTRAL COOLING COIL CONTOLLER 1</text>
  <text x="   220" y="  1440">CENTRAL HEATING COIL CONTOLLER 1</text>
  <text x="   220" y="  1460">OA CONTROLLER 1</text>
  <text x="   200" y="  1500">
The following are not supported: objects related to controls, AirTerminal:SingleDuct:Uncontrolled, or ZoneHVAC:IdealLoadsAirSystem</text>
</g>
</svg>
